# xmcd
#
# Track frame offsets: 
#        150
#        18526
#        31950
#        53856
#        71976
#        84592
#        97025
#        111876
#        130278
#        141892
#        156355
#        173224
#        190685
#        204366
#        224106
#
# Disc length: 3129 seconds
#
# Revision: 0
# Processed by: cddbd v1.5.2PL0 Copyright (c) Steve Scherf et al.
# Submitted via: ExactAudioCopy v0.99pb3
#
DISCID=e30c370f
DTITLE=Various Artist - France Bluegrass vol.2, cd.1
DYEAR=2005
DGENRE=Bluegrass
TTITLE0=Bluegrass 43 - The witch
TTITLE1=Thierry Massoubre /Louisville Breakdown
TTITLE2=Keep Off The Grass - Judas
TTITLE3=Distel and Lecoq - Gédeon's dream
TTITLE4=Bluegrass Deluxe - Fox on the run
TTITLE5=Moonshine - I wish you knew
TTITLE6=Banjomaniacs - Bella ciao
TTITLE7=Tante Agathe's - Toulouse streets
TTITLE8=Mary and Co - 3 rivières
TTITLE9=Vue and Perrard - Big Scioty
TTITLE10=Patch - Hide Thou me
TTITLE11=LoneSaône - Ventoline Breakdown
TTITLE12=Acoustic River - Who knows what tomorrow may bring
TTITLE13=Blue Quitach - Blues stay away from me
TTITLE14=Duo Post-Scriptum - Fix the buttons
EXTD=
EXTT0=
EXTT1=
EXTT2=
EXTT3=
EXTT4=
EXTT5=
EXTT6=
EXTT7=
EXTT8=
EXTT9=
EXTT10=
EXTT11=
EXTT12=
EXTT13=
EXTT14=
PLAYORDER=
